<svg width="27" height="24" viewBox="0 0 27 24" fill="none" xmlns="http://www.w3.org/2000/svg">
<path d="M23.5917 1.76454C23.3 0.904126 22.4833 0.291626 21.5208 0.291626H5.47917C4.51667 0.291626 3.71458 0.904126 3.40833 1.76454L0.535417 10.0333C0.433333 10.3395 0.375 10.6604 0.375 10.9958V21.4375C0.375 22.6479 1.35208 23.625 2.5625 23.625C3.77292 23.625 4.75 22.6479 4.75 21.4375V20.7083H22.25V21.4375C22.25 22.6333 23.2271 23.625 24.4375 23.625C25.6333 23.625 26.625 22.6479 26.625 21.4375V10.9958C26.625 10.675 26.5667 10.3395 26.4646 10.0333L23.5917 1.76454ZM5.47917 16.3333C4.26875 16.3333 3.29167 15.3562 3.29167 14.1458C3.29167 12.9354 4.26875 11.9583 5.47917 11.9583C6.68958 11.9583 7.66667 12.9354 7.66667 14.1458C7.66667 15.3562 6.68958 16.3333 5.47917 16.3333ZM21.5208 16.3333C20.3104 16.3333 19.3333 15.3562 19.3333 14.1458C19.3333 12.9354 20.3104 11.9583 21.5208 11.9583C22.7313 11.9583 23.7083 12.9354 23.7083 14.1458C23.7083 15.3562 22.7313 16.3333 21.5208 16.3333ZM3.29167 9.04163L5.14375 3.47079C5.34792 2.88746 5.90208 2.47913 6.52917 2.47913H20.4708C21.0979 2.47913 21.6521 2.88746 21.8563 3.47079L23.7083 9.04163H3.29167Z" fill="#2E3D83"/>
</svg>
