<svg width="22" height="21" viewBox="0 0 22 21" fill="none" xmlns="http://www.w3.org/2000/svg">
<path d="M20.5634 7.3L14.5134 6.775L12.1509 1.2125C11.7259 0.2 10.2759 0.2 9.85088 1.2125L7.48838 6.7875L1.45088 7.3C0.350884 7.3875 -0.0991158 8.7625 0.738384 9.4875L5.32588 13.4625L3.95088 19.3625C3.70088 20.4375 4.86338 21.2875 5.81338 20.7125L11.0009 17.5875L16.1884 20.725C17.1384 21.3 18.3009 20.45 18.0509 19.375L16.6759 13.4625L21.2634 9.4875C22.1009 8.7625 21.6634 7.3875 20.5634 7.3ZM11.0009 15.25L6.30088 18.0875L7.55088 12.7375L3.40088 9.1375L8.87588 8.6625L11.0009 3.625L13.1384 8.675L18.6134 9.15L14.4634 12.75L15.7134 18.1L11.0009 15.25Z" fill="white"/>
</svg>
