<svg width="175" height="49" viewBox="0 0 175 49" fill="none" xmlns="http://www.w3.org/2000/svg">
<path fill-rule="evenodd" clip-rule="evenodd" d="M113.188 48.8594L130.625 27.6719C131.844 26.1719 132.594 24.6719 136.438 24.6719C141.782 24.6719 148.719 23.4531 154.532 22.1406C162.594 20.3594 169.344 16.9844 174.688 14.3594C173.188 17.2656 162.969 20.2656 157.813 22.9844C162.313 21.8594 163.157 21.5781 167.563 20.0781C164.282 23.0781 160.438 22.7969 155.094 25.4219C159.032 24.5781 159.219 24.5781 163.063 23.3594C160.719 25.8906 156.219 25.5156 152.75 27.4844C156.313 26.9219 156.032 27.1094 159.313 26.1719C156.969 27.6719 153.032 30.1094 145.719 33.1094L131.844 36.2969C130.813 36.4844 128.282 36.7656 126.125 38.8281C123.407 41.5469 119.657 44.7344 118.532 45.4844C117.219 46.5156 115.719 48.2969 113.188 48.8594ZM112.063 48.0156L127.907 27.5781C129.125 25.9844 129.407 23.9219 126.313 22.7969C122.094 21.2031 117.5 20.8281 113.375 19.1406C104.844 15.8594 99.8754 7.98438 94.8129 0.390625C93.1254 3.67188 99.5004 7.79688 101 12.0156C98.5629 9.57812 96.3129 7.04688 94.3442 4.23438C94.0629 8.07812 99.6879 10.5156 101.375 14.7344C99.0317 12.6719 96.7817 10.6094 94.9067 8.35938C94.2504 11.5469 100.907 14.5469 101.75 17.4531C99.5004 15.9531 97.3442 14.2656 95.7504 12.3906C96.1254 14.5469 98.3754 17.5469 102.969 21.2031C107.375 25.3281 114.594 30.4844 114.782 37.5156C114.782 39.6719 113.844 41.3594 112.813 43.2344C112.157 44.4531 111.688 46.1406 112.063 48.0156Z" fill="#949599"/>
<path fill-rule="evenodd" clip-rule="evenodd" d="M0.3125 48.2031H6.125L10.7188 38.5469H21.9688L23.8438 48.2031H33.2188L24.6875 13.7031H18.5938L0.3125 48.2031ZM12.3125 35.2656L18.5 23.4531L21.2188 35.2656H12.3125ZM41.75 23.4531H49.625L49.0625 28.7969C51.4062 24.6719 53.8438 22.7969 56.4688 23.4531L55.4375 31.3281C51.875 29.8281 49.4375 30.9531 48.4062 34.7969L46.9062 48.2031H38.5625L41.75 23.4531ZM62.6562 23.4531H70.25L66.6875 48.2031H59.0938L62.6562 23.4531ZM78.875 15.9531H86.1875L83.6562 34.0469H85.5312L94.625 23.4531H101.938L91.8125 34.0469L98.9375 48.2031H89.1875L85.0625 37.4219H83.0938L81.5938 48.2031H74.1875L78.875 15.9531Z" fill="#0D3F84"/>
</svg>
