<svg width="22" height="18" viewBox="0 0 22 18" fill="none" xmlns="http://www.w3.org/2000/svg">
<path d="M5 2.25C5 1.65326 5.23705 1.08097 5.65901 0.65901C6.08097 0.237053 6.65326 0 7.25 0H14.75C15.3467 0 15.919 0.237053 16.341 0.65901C16.7629 1.08097 17 1.65326 17 2.25V3H18.5C19.2956 3 20.0587 3.31607 20.6213 3.87868C21.1839 4.44129 21.5 5.20435 21.5 6V12.75C21.5 13.3467 21.2629 13.919 20.841 14.341C20.419 14.7629 19.8467 15 19.25 15H17.15V15.75C17.15 16.3467 16.9129 16.919 16.491 17.341C16.069 17.7629 15.4967 18 14.9 18H7.25C6.65326 18 6.08097 17.7629 5.65901 17.341C5.23705 16.919 5 16.3467 5 15.75V15H2.75C2.15326 15 1.58097 14.7629 1.15901 14.341C0.737053 13.919 0.5 13.3467 0.5 12.75V6C0.5 5.20435 0.816071 4.44129 1.37868 3.87868C1.94129 3.31607 2.70435 3 3.5 3H5V2.25ZM15.5 3V2.25C15.5 2.05109 15.421 1.86032 15.2803 1.71967C15.1397 1.57902 14.9489 1.5 14.75 1.5H7.25C7.05109 1.5 6.86032 1.57902 6.71967 1.71967C6.57902 1.86032 6.5 2.05109 6.5 2.25V3H15.5ZM5 4.5H3.5C3.10218 4.5 2.72064 4.65804 2.43934 4.93934C2.15804 5.22064 2 5.60218 2 6V12.75C2 12.9489 2.07902 13.1397 2.21967 13.2803C2.36032 13.421 2.55109 13.5 2.75 13.5H5V12.75C5 12.1533 5.23705 11.581 5.65901 11.159C6.08097 10.7371 6.65326 10.5 7.25 10.5H14.9C15.4967 10.5 16.069 10.7371 16.491 11.159C16.9129 11.581 17.15 12.1533 17.15 12.75V13.5H19.25C19.4489 13.5 19.6397 13.421 19.7803 13.2803C19.921 13.1397 20 12.9489 20 12.75V6C20 5.60218 19.842 5.22064 19.5607 4.93934C19.2794 4.65804 18.8978 4.5 18.5 4.5H5ZM7.25 12C7.05109 12 6.86032 12.079 6.71967 12.2197C6.57902 12.3603 6.5 12.5511 6.5 12.75V15.75C6.5 15.9489 6.57902 16.1397 6.71967 16.2803C6.86032 16.421 7.05109 16.5 7.25 16.5H14.9C15.0989 16.5 15.2897 16.421 15.4303 16.2803C15.571 16.1397 15.65 15.9489 15.65 15.75V12.75C15.65 12.5511 15.571 12.3603 15.4303 12.2197C15.2897 12.079 15.0989 12 14.9 12H7.25Z" fill="#232321"/>
</svg>
